<mxfile host="app.diagrams.net" modified="2022-12-05T06:47:50.621Z" agent="5.0 (Macintosh; Intel Mac OS X 10_15_7) AppleWebKit/537.36 (KHTML, like Gecko) Chrome/106.0.0.0 Safari/537.36" etag="xXcJfk-r1Qc-WjGhalhw" version="20.5.3" type="github" pages="2">
  <diagram id="nm5JbfF43LytAKfX23Ae" name="第 1 页">
    <mxGraphModel dx="1426" dy="801" grid="1" gridSize="10" guides="1" tooltips="1" connect="1" arrows="1" fold="1" page="1" pageScale="1" pageWidth="2339" pageHeight="3300" math="0" shadow="0">
      <root>
        <mxCell id="0" />
        <mxCell id="1" parent="0" />
        <mxCell id="ZO_voK8WTCk-SmgarwIh-1" value="ConditionAdapter" style="rounded=1;whiteSpace=wrap;html=1;" vertex="1" parent="1">
          <mxGeometry x="170" y="380" width="120" height="60" as="geometry" />
        </mxCell>
        <mxCell id="ZO_voK8WTCk-SmgarwIh-2" value="ColumnsAdapter" style="rounded=1;whiteSpace=wrap;html=1;" vertex="1" parent="1">
          <mxGeometry x="170" y="300" width="120" height="60" as="geometry" />
        </mxCell>
        <mxCell id="ZO_voK8WTCk-SmgarwIh-22" style="edgeStyle=orthogonalEdgeStyle;rounded=0;orthogonalLoop=1;jettySize=auto;html=1;exitX=0.5;exitY=0;exitDx=0;exitDy=0;entryX=0.5;entryY=1;entryDx=0;entryDy=0;" edge="1" parent="1" source="ZO_voK8WTCk-SmgarwIh-3" target="ZO_voK8WTCk-SmgarwIh-17">
          <mxGeometry relative="1" as="geometry" />
        </mxCell>
        <mxCell id="ZO_voK8WTCk-SmgarwIh-3" value="ViewCondition" style="rounded=1;whiteSpace=wrap;html=1;" vertex="1" parent="1">
          <mxGeometry x="700" y="440" width="120" height="60" as="geometry" />
        </mxCell>
        <mxCell id="ZO_voK8WTCk-SmgarwIh-19" style="edgeStyle=orthogonalEdgeStyle;rounded=0;orthogonalLoop=1;jettySize=auto;html=1;exitX=0.5;exitY=0;exitDx=0;exitDy=0;entryX=0.5;entryY=1;entryDx=0;entryDy=0;" edge="1" parent="1" source="ZO_voK8WTCk-SmgarwIh-4" target="ZO_voK8WTCk-SmgarwIh-16">
          <mxGeometry relative="1" as="geometry" />
        </mxCell>
        <mxCell id="ZO_voK8WTCk-SmgarwIh-20" style="edgeStyle=orthogonalEdgeStyle;rounded=0;orthogonalLoop=1;jettySize=auto;html=1;exitX=0.5;exitY=0;exitDx=0;exitDy=0;entryX=0.5;entryY=1;entryDx=0;entryDy=0;" edge="1" parent="1" source="ZO_voK8WTCk-SmgarwIh-4" target="ZO_voK8WTCk-SmgarwIh-17">
          <mxGeometry relative="1" as="geometry" />
        </mxCell>
        <mxCell id="ZO_voK8WTCk-SmgarwIh-21" style="edgeStyle=orthogonalEdgeStyle;rounded=0;orthogonalLoop=1;jettySize=auto;html=1;exitX=0.5;exitY=0;exitDx=0;exitDy=0;entryX=0.5;entryY=1;entryDx=0;entryDy=0;" edge="1" parent="1" source="ZO_voK8WTCk-SmgarwIh-4" target="ZO_voK8WTCk-SmgarwIh-5">
          <mxGeometry relative="1" as="geometry" />
        </mxCell>
        <mxCell id="ZO_voK8WTCk-SmgarwIh-4" value="ViewStyle" style="rounded=1;whiteSpace=wrap;html=1;" vertex="1" parent="1">
          <mxGeometry x="460" y="440" width="120" height="60" as="geometry" />
        </mxCell>
        <mxCell id="ZO_voK8WTCk-SmgarwIh-5" value="DynamicViewPage" style="rounded=1;whiteSpace=wrap;html=1;" vertex="1" parent="1">
          <mxGeometry x="740" y="300" width="120" height="60" as="geometry" />
        </mxCell>
        <mxCell id="ZO_voK8WTCk-SmgarwIh-6" value="DynamicView" style="rounded=1;whiteSpace=wrap;html=1;" vertex="1" parent="1">
          <mxGeometry x="1110" y="260" width="120" height="60" as="geometry" />
        </mxCell>
        <mxCell id="ZO_voK8WTCk-SmgarwIh-7" value="DropdownButton" style="rounded=1;whiteSpace=wrap;html=1;" vertex="1" parent="1">
          <mxGeometry x="420" y="600" width="120" height="60" as="geometry" />
        </mxCell>
        <mxCell id="ZO_voK8WTCk-SmgarwIh-8" value="MenuList" style="rounded=1;whiteSpace=wrap;html=1;" vertex="1" parent="1">
          <mxGeometry x="580" y="600" width="120" height="60" as="geometry" />
        </mxCell>
        <mxCell id="ZO_voK8WTCk-SmgarwIh-16" value="ListPage" style="rounded=1;whiteSpace=wrap;html=1;" vertex="1" parent="1">
          <mxGeometry x="420" y="300" width="120" height="60" as="geometry" />
        </mxCell>
        <mxCell id="ZO_voK8WTCk-SmgarwIh-17" value="CommonViewPage" style="rounded=1;whiteSpace=wrap;html=1;" vertex="1" parent="1">
          <mxGeometry x="580" y="300" width="120" height="60" as="geometry" />
        </mxCell>
        <mxCell id="ZO_voK8WTCk-SmgarwIh-23" value="MenuList" style="rounded=1;whiteSpace=wrap;html=1;" vertex="1" parent="1">
          <mxGeometry x="740" y="600" width="120" height="60" as="geometry" />
        </mxCell>
        <mxCell id="ZO_voK8WTCk-SmgarwIh-34" value="" style="group" vertex="1" connectable="0" parent="1">
          <mxGeometry x="280" y="880" width="240" height="200" as="geometry" />
        </mxCell>
        <mxCell id="ZO_voK8WTCk-SmgarwIh-25" value="" style="rounded=1;whiteSpace=wrap;html=1;" vertex="1" parent="ZO_voK8WTCk-SmgarwIh-34">
          <mxGeometry width="240" height="200" as="geometry" />
        </mxCell>
        <mxCell id="ZO_voK8WTCk-SmgarwIh-27" value="ListPage" style="text;html=1;align=left;verticalAlign=middle;resizable=0;points=[];autosize=1;strokeColor=none;fillColor=none;" vertex="1" parent="ZO_voK8WTCk-SmgarwIh-34">
          <mxGeometry x="10" width="70" height="30" as="geometry" />
        </mxCell>
        <mxCell id="ZO_voK8WTCk-SmgarwIh-35" value="condition" style="rounded=0;whiteSpace=wrap;html=1;" vertex="1" parent="ZO_voK8WTCk-SmgarwIh-34">
          <mxGeometry x="10" y="30" width="80" height="30" as="geometry" />
        </mxCell>
        <mxCell id="ZO_voK8WTCk-SmgarwIh-36" value="columns" style="rounded=0;whiteSpace=wrap;html=1;" vertex="1" parent="ZO_voK8WTCk-SmgarwIh-34">
          <mxGeometry x="150" y="40" width="80" height="30" as="geometry" />
        </mxCell>
        <mxCell id="ZO_voK8WTCk-SmgarwIh-41" value="ColumnsAdapter" style="rounded=1;whiteSpace=wrap;html=1;" vertex="1" parent="1">
          <mxGeometry x="480" y="1240" width="120" height="60" as="geometry" />
        </mxCell>
        <mxCell id="ZO_voK8WTCk-SmgarwIh-60" value="" style="edgeStyle=orthogonalEdgeStyle;rounded=0;orthogonalLoop=1;jettySize=auto;html=1;" edge="1" parent="1" source="ZO_voK8WTCk-SmgarwIh-42" target="ZO_voK8WTCk-SmgarwIh-59">
          <mxGeometry relative="1" as="geometry" />
        </mxCell>
        <mxCell id="ZO_voK8WTCk-SmgarwIh-42" value="ConditionAdapter" style="rounded=1;whiteSpace=wrap;html=1;" vertex="1" parent="1">
          <mxGeometry x="330" y="1100" width="120" height="60" as="geometry" />
        </mxCell>
        <mxCell id="ZO_voK8WTCk-SmgarwIh-53" value="" style="endArrow=classic;html=1;rounded=0;exitX=0.5;exitY=1;exitDx=0;exitDy=0;entryX=0.5;entryY=0;entryDx=0;entryDy=0;" edge="1" parent="1" source="ZO_voK8WTCk-SmgarwIh-35" target="ZO_voK8WTCk-SmgarwIh-42">
          <mxGeometry width="50" height="50" relative="1" as="geometry">
            <mxPoint x="660" y="1130" as="sourcePoint" />
            <mxPoint x="710" y="1080" as="targetPoint" />
          </mxGeometry>
        </mxCell>
        <mxCell id="ZO_voK8WTCk-SmgarwIh-59" value="搜索数据" style="rounded=1;whiteSpace=wrap;html=1;" vertex="1" parent="1">
          <mxGeometry x="330" y="1240" width="120" height="60" as="geometry" />
        </mxCell>
        <mxCell id="ZO_voK8WTCk-SmgarwIh-61" value="" style="rounded=0;whiteSpace=wrap;html=1;" vertex="1" parent="1">
          <mxGeometry x="800" y="840" width="140" height="220" as="geometry" />
        </mxCell>
        <mxCell id="ZO_voK8WTCk-SmgarwIh-62" value="&amp;nbsp; ListPage" style="text;html=1;align=left;verticalAlign=middle;resizable=0;points=[];autosize=1;strokeColor=none;fillColor=none;" vertex="1" parent="1">
          <mxGeometry x="800" y="840" width="80" height="30" as="geometry" />
        </mxCell>
        <mxCell id="ZO_voK8WTCk-SmgarwIh-68" style="edgeStyle=orthogonalEdgeStyle;rounded=0;orthogonalLoop=1;jettySize=auto;html=1;exitX=1;exitY=0.5;exitDx=0;exitDy=0;entryX=0;entryY=0.5;entryDx=0;entryDy=0;" edge="1" parent="1" source="ZO_voK8WTCk-SmgarwIh-63" target="ZO_voK8WTCk-SmgarwIh-67">
          <mxGeometry relative="1" as="geometry" />
        </mxCell>
        <mxCell id="ZO_voK8WTCk-SmgarwIh-63" value="origin condition" style="rounded=0;whiteSpace=wrap;html=1;" vertex="1" parent="1">
          <mxGeometry x="810" y="870" width="120" height="30" as="geometry" />
        </mxCell>
        <mxCell id="ZO_voK8WTCk-SmgarwIh-64" value="origin columns" style="rounded=0;whiteSpace=wrap;html=1;" vertex="1" parent="1">
          <mxGeometry x="810" y="910" width="120" height="30" as="geometry" />
        </mxCell>
        <mxCell id="ZO_voK8WTCk-SmgarwIh-65" value="render dataSource" style="rounded=0;whiteSpace=wrap;html=1;" vertex="1" parent="1">
          <mxGeometry x="810" y="980" width="120" height="30" as="geometry" />
        </mxCell>
        <mxCell id="ZO_voK8WTCk-SmgarwIh-66" value="render dataSource" style="rounded=0;whiteSpace=wrap;html=1;" vertex="1" parent="1">
          <mxGeometry x="810" y="1020" width="120" height="30" as="geometry" />
        </mxCell>
        <mxCell id="ZO_voK8WTCk-SmgarwIh-67" value="ConditionAdapter" style="rounded=1;whiteSpace=wrap;html=1;" vertex="1" parent="1">
          <mxGeometry x="1040" y="867.5" width="120" height="35" as="geometry" />
        </mxCell>
        <mxCell id="ZO_voK8WTCk-SmgarwIh-69" value="" style="rounded=0;whiteSpace=wrap;html=1;" vertex="1" parent="1">
          <mxGeometry x="280" y="1600" width="140" height="210" as="geometry" />
        </mxCell>
        <mxCell id="ZO_voK8WTCk-SmgarwIh-70" value="自定义搜索" style="text;html=1;align=center;verticalAlign=middle;resizable=0;points=[];autosize=1;strokeColor=none;fillColor=none;" vertex="1" parent="1">
          <mxGeometry x="280" y="1600" width="80" height="30" as="geometry" />
        </mxCell>
        <mxCell id="ZO_voK8WTCk-SmgarwIh-71" value="Dropdown" style="rounded=1;whiteSpace=wrap;html=1;" vertex="1" parent="1">
          <mxGeometry x="290" y="1630" width="80" height="30" as="geometry" />
        </mxCell>
        <mxCell id="ZO_voK8WTCk-SmgarwIh-72" value="配置列表" style="rounded=1;whiteSpace=wrap;html=1;" vertex="1" parent="1">
          <mxGeometry x="290" y="1670" width="80" height="30" as="geometry" />
        </mxCell>
        <mxCell id="ZO_voK8WTCk-SmgarwIh-73" value="conditionAdapter" style="rounded=1;whiteSpace=wrap;html=1;fillColor=#f8cecc;strokeColor=#b85450;" vertex="1" parent="1">
          <mxGeometry x="290" y="1710" width="120" height="30" as="geometry" />
        </mxCell>
        <mxCell id="ZO_voK8WTCk-SmgarwIh-75" value="" style="rounded=0;whiteSpace=wrap;html=1;" vertex="1" parent="1">
          <mxGeometry x="440" y="1600" width="140" height="210" as="geometry" />
        </mxCell>
        <mxCell id="ZO_voK8WTCk-SmgarwIh-76" value="列表布局" style="text;html=1;align=center;verticalAlign=middle;resizable=0;points=[];autosize=1;strokeColor=none;fillColor=none;" vertex="1" parent="1">
          <mxGeometry x="441" y="1600" width="70" height="30" as="geometry" />
        </mxCell>
        <mxCell id="ZO_voK8WTCk-SmgarwIh-77" value="Dropdown" style="rounded=1;whiteSpace=wrap;html=1;" vertex="1" parent="1">
          <mxGeometry x="450" y="1630" width="80" height="30" as="geometry" />
        </mxCell>
        <mxCell id="ZO_voK8WTCk-SmgarwIh-78" value="配置列表" style="rounded=1;whiteSpace=wrap;html=1;" vertex="1" parent="1">
          <mxGeometry x="450" y="1670" width="80" height="30" as="geometry" />
        </mxCell>
        <mxCell id="ZO_voK8WTCk-SmgarwIh-79" value="columnsAdapter" style="rounded=1;whiteSpace=wrap;html=1;fillColor=#f8cecc;strokeColor=#b85450;" vertex="1" parent="1">
          <mxGeometry x="450" y="1710" width="120" height="30" as="geometry" />
        </mxCell>
        <mxCell id="ZO_voK8WTCk-SmgarwIh-80" value="conditionOptions" style="rounded=1;whiteSpace=wrap;html=1;" vertex="1" parent="1">
          <mxGeometry x="290" y="1750" width="120" height="30" as="geometry" />
        </mxCell>
        <mxCell id="ZO_voK8WTCk-SmgarwIh-82" value="" style="rounded=0;whiteSpace=wrap;html=1;" vertex="1" parent="1">
          <mxGeometry x="600" y="1600" width="140" height="210" as="geometry" />
        </mxCell>
        <mxCell id="ZO_voK8WTCk-SmgarwIh-83" value="其它" style="text;html=1;align=center;verticalAlign=middle;resizable=0;points=[];autosize=1;strokeColor=none;fillColor=none;" vertex="1" parent="1">
          <mxGeometry x="600" y="1600" width="50" height="30" as="geometry" />
        </mxCell>
        <mxCell id="ZO_voK8WTCk-SmgarwIh-84" value="导出" style="rounded=1;whiteSpace=wrap;html=1;" vertex="1" parent="1">
          <mxGeometry x="610" y="1630" width="80" height="30" as="geometry" />
        </mxCell>
        <mxCell id="ZO_voK8WTCk-SmgarwIh-91" value="" style="rounded=0;whiteSpace=wrap;html=1;" vertex="1" parent="1">
          <mxGeometry x="280" y="1830" width="460" height="50" as="geometry" />
        </mxCell>
        <mxCell id="ZO_voK8WTCk-SmgarwIh-92" value="AttrSelect" style="rounded=1;whiteSpace=wrap;html=1;" vertex="1" parent="1">
          <mxGeometry x="290" y="1840" width="80" height="30" as="geometry" />
        </mxCell>
        <mxCell id="ZO_voK8WTCk-SmgarwIh-93" value="RichTable" style="rounded=1;whiteSpace=wrap;html=1;" vertex="1" parent="1">
          <mxGeometry x="380" y="1840" width="80" height="30" as="geometry" />
        </mxCell>
        <mxCell id="ZO_voK8WTCk-SmgarwIh-94" value="" style="rounded=0;whiteSpace=wrap;html=1;" vertex="1" parent="1">
          <mxGeometry x="280" y="1900" width="460" height="50" as="geometry" />
        </mxCell>
        <mxCell id="ZO_voK8WTCk-SmgarwIh-95" value="React" style="rounded=1;whiteSpace=wrap;html=1;" vertex="1" parent="1">
          <mxGeometry x="290" y="1910" width="80" height="30" as="geometry" />
        </mxCell>
        <mxCell id="ZO_voK8WTCk-SmgarwIh-96" value="Mobx" style="rounded=1;whiteSpace=wrap;html=1;" vertex="1" parent="1">
          <mxGeometry x="380" y="1910" width="80" height="30" as="geometry" />
        </mxCell>
        <mxCell id="ZO_voK8WTCk-SmgarwIh-97" value="Antd" style="rounded=1;whiteSpace=wrap;html=1;" vertex="1" parent="1">
          <mxGeometry x="470" y="1910" width="80" height="30" as="geometry" />
        </mxCell>
        <mxCell id="ZO_voK8WTCk-SmgarwIh-98" value="FromFiledRender" style="rounded=1;whiteSpace=wrap;html=1;" vertex="1" parent="1">
          <mxGeometry x="470" y="1840" width="120" height="30" as="geometry" />
        </mxCell>
        <mxCell id="ZO_voK8WTCk-SmgarwIh-99" value="" style="rounded=0;whiteSpace=wrap;html=1;" vertex="1" parent="1">
          <mxGeometry x="280" y="1530" width="300" height="50" as="geometry" />
        </mxCell>
        <mxCell id="ZO_voK8WTCk-SmgarwIh-100" value="ListPage" style="rounded=1;whiteSpace=wrap;html=1;" vertex="1" parent="1">
          <mxGeometry x="290" y="1540" width="80" height="30" as="geometry" />
        </mxCell>
        <mxCell id="ZO_voK8WTCk-SmgarwIh-101" value="CommonViewPage" style="rounded=1;whiteSpace=wrap;html=1;" vertex="1" parent="1">
          <mxGeometry x="380" y="1540" width="140" height="30" as="geometry" />
        </mxCell>
        <mxCell id="ZO_voK8WTCk-SmgarwIh-102" value="DynamicViewPage" style="rounded=1;whiteSpace=wrap;html=1;" vertex="1" parent="1">
          <mxGeometry x="600" y="1530" width="140" height="50" as="geometry" />
        </mxCell>
        <mxCell id="ZO_voK8WTCk-SmgarwIh-103" value="Cache" style="rounded=1;whiteSpace=wrap;html=1;" vertex="1" parent="1">
          <mxGeometry x="610" y="1670" width="80" height="30" as="geometry" />
        </mxCell>
      </root>
    </mxGraphModel>
  </diagram>
  <diagram id="j_tm1Ur2rv6hb-nB_F4r" name="第 2 页">
    <mxGraphModel dx="1426" dy="801" grid="1" gridSize="10" guides="1" tooltips="1" connect="1" arrows="1" fold="1" page="1" pageScale="1" pageWidth="2339" pageHeight="3300" math="0" shadow="0">
      <root>
        <mxCell id="0" />
        <mxCell id="1" parent="0" />
        <mxCell id="NcDPBJ0Ie0tPJa-_Eppp-29" value="" style="rounded=0;whiteSpace=wrap;html=1;fillColor=#dae8fc;strokeColor=#6c8ebf;" vertex="1" parent="1">
          <mxGeometry x="540" y="440" width="90" height="50" as="geometry" />
        </mxCell>
        <mxCell id="NcDPBJ0Ie0tPJa-_Eppp-1" value="" style="rounded=0;whiteSpace=wrap;html=1;fillColor=#dae8fc;strokeColor=#6c8ebf;" vertex="1" parent="1">
          <mxGeometry x="190" y="220" width="140" height="210" as="geometry" />
        </mxCell>
        <mxCell id="NcDPBJ0Ie0tPJa-_Eppp-2" value="自定义搜索" style="text;html=1;align=center;verticalAlign=middle;resizable=0;points=[];autosize=1;strokeColor=none;fillColor=none;" vertex="1" parent="1">
          <mxGeometry x="190" y="220" width="80" height="30" as="geometry" />
        </mxCell>
        <mxCell id="NcDPBJ0Ie0tPJa-_Eppp-3" value="Dropdown" style="rounded=1;whiteSpace=wrap;html=1;" vertex="1" parent="1">
          <mxGeometry x="200" y="250" width="80" height="30" as="geometry" />
        </mxCell>
        <mxCell id="NcDPBJ0Ie0tPJa-_Eppp-4" value="配置列表弹窗" style="rounded=1;whiteSpace=wrap;html=1;" vertex="1" parent="1">
          <mxGeometry x="200" y="290" width="120" height="30" as="geometry" />
        </mxCell>
        <mxCell id="NcDPBJ0Ie0tPJa-_Eppp-5" value="conditionAdapter" style="rounded=1;whiteSpace=wrap;html=1;" vertex="1" parent="1">
          <mxGeometry x="200" y="330" width="120" height="30" as="geometry" />
        </mxCell>
        <mxCell id="NcDPBJ0Ie0tPJa-_Eppp-6" value="" style="rounded=0;whiteSpace=wrap;html=1;fillColor=#dae8fc;strokeColor=#6c8ebf;" vertex="1" parent="1">
          <mxGeometry x="340" y="220" width="140" height="210" as="geometry" />
        </mxCell>
        <mxCell id="NcDPBJ0Ie0tPJa-_Eppp-7" value="列表布局" style="text;html=1;align=center;verticalAlign=middle;resizable=0;points=[];autosize=1;strokeColor=none;fillColor=none;" vertex="1" parent="1">
          <mxGeometry x="341" y="220" width="70" height="30" as="geometry" />
        </mxCell>
        <mxCell id="NcDPBJ0Ie0tPJa-_Eppp-8" value="Dropdown" style="rounded=1;whiteSpace=wrap;html=1;" vertex="1" parent="1">
          <mxGeometry x="350" y="250" width="80" height="30" as="geometry" />
        </mxCell>
        <mxCell id="NcDPBJ0Ie0tPJa-_Eppp-9" value="配置列表弹窗" style="rounded=1;whiteSpace=wrap;html=1;" vertex="1" parent="1">
          <mxGeometry x="350" y="290" width="120" height="30" as="geometry" />
        </mxCell>
        <mxCell id="NcDPBJ0Ie0tPJa-_Eppp-10" value="columnsAdapter" style="rounded=1;whiteSpace=wrap;html=1;" vertex="1" parent="1">
          <mxGeometry x="350" y="330" width="120" height="30" as="geometry" />
        </mxCell>
        <mxCell id="NcDPBJ0Ie0tPJa-_Eppp-11" value="conditionOptions" style="rounded=1;whiteSpace=wrap;html=1;" vertex="1" parent="1">
          <mxGeometry x="200" y="370" width="120" height="30" as="geometry" />
        </mxCell>
        <mxCell id="NcDPBJ0Ie0tPJa-_Eppp-12" value="" style="rounded=0;whiteSpace=wrap;html=1;fillColor=#dae8fc;strokeColor=#6c8ebf;" vertex="1" parent="1">
          <mxGeometry x="490" y="220" width="140" height="210" as="geometry" />
        </mxCell>
        <mxCell id="NcDPBJ0Ie0tPJa-_Eppp-13" value="其它" style="text;html=1;align=center;verticalAlign=middle;resizable=0;points=[];autosize=1;strokeColor=none;fillColor=none;" vertex="1" parent="1">
          <mxGeometry x="490" y="220" width="50" height="30" as="geometry" />
        </mxCell>
        <mxCell id="NcDPBJ0Ie0tPJa-_Eppp-14" value="导出" style="rounded=1;whiteSpace=wrap;html=1;" vertex="1" parent="1">
          <mxGeometry x="500" y="250" width="80" height="30" as="geometry" />
        </mxCell>
        <mxCell id="NcDPBJ0Ie0tPJa-_Eppp-15" value="" style="rounded=0;whiteSpace=wrap;html=1;fillColor=#dae8fc;strokeColor=#6c8ebf;" vertex="1" parent="1">
          <mxGeometry x="190" y="440" width="340" height="50" as="geometry" />
        </mxCell>
        <mxCell id="NcDPBJ0Ie0tPJa-_Eppp-16" value="AttrSelect" style="rounded=1;whiteSpace=wrap;html=1;" vertex="1" parent="1">
          <mxGeometry x="200" y="450" width="80" height="30" as="geometry" />
        </mxCell>
        <mxCell id="NcDPBJ0Ie0tPJa-_Eppp-17" value="RichTable" style="rounded=1;whiteSpace=wrap;html=1;" vertex="1" parent="1">
          <mxGeometry x="290" y="450" width="80" height="30" as="geometry" />
        </mxCell>
        <mxCell id="NcDPBJ0Ie0tPJa-_Eppp-18" value="" style="rounded=0;whiteSpace=wrap;html=1;fillColor=#dae8fc;strokeColor=#6c8ebf;" vertex="1" parent="1">
          <mxGeometry x="190" y="500" width="440" height="50" as="geometry" />
        </mxCell>
        <mxCell id="NcDPBJ0Ie0tPJa-_Eppp-19" value="React" style="rounded=1;whiteSpace=wrap;html=1;" vertex="1" parent="1">
          <mxGeometry x="200" y="510" width="80" height="30" as="geometry" />
        </mxCell>
        <mxCell id="NcDPBJ0Ie0tPJa-_Eppp-20" value="Mobx" style="rounded=1;whiteSpace=wrap;html=1;" vertex="1" parent="1">
          <mxGeometry x="290" y="510" width="80" height="30" as="geometry" />
        </mxCell>
        <mxCell id="NcDPBJ0Ie0tPJa-_Eppp-21" value="Antd" style="rounded=1;whiteSpace=wrap;html=1;" vertex="1" parent="1">
          <mxGeometry x="380" y="510" width="80" height="30" as="geometry" />
        </mxCell>
        <mxCell id="NcDPBJ0Ie0tPJa-_Eppp-22" value="DynamicFromRender" style="rounded=1;whiteSpace=wrap;html=1;" vertex="1" parent="1">
          <mxGeometry x="380" y="450" width="140" height="30" as="geometry" />
        </mxCell>
        <mxCell id="NcDPBJ0Ie0tPJa-_Eppp-23" value="" style="rounded=0;whiteSpace=wrap;html=1;fillColor=#dae8fc;strokeColor=#6c8ebf;" vertex="1" parent="1">
          <mxGeometry x="190" y="160" width="290" height="50" as="geometry" />
        </mxCell>
        <mxCell id="NcDPBJ0Ie0tPJa-_Eppp-24" value="Normal ListPage" style="rounded=1;whiteSpace=wrap;html=1;" vertex="1" parent="1">
          <mxGeometry x="200" y="170" width="120" height="30" as="geometry" />
        </mxCell>
        <mxCell id="NcDPBJ0Ie0tPJa-_Eppp-25" value="CommonViewPage" style="rounded=1;whiteSpace=wrap;html=1;" vertex="1" parent="1">
          <mxGeometry x="330" y="170" width="140" height="30" as="geometry" />
        </mxCell>
        <mxCell id="NcDPBJ0Ie0tPJa-_Eppp-26" value="DynamicViewPage" style="rounded=1;whiteSpace=wrap;html=1;" vertex="1" parent="1">
          <mxGeometry x="490" y="170" width="140" height="30" as="geometry" />
        </mxCell>
        <mxCell id="NcDPBJ0Ie0tPJa-_Eppp-27" value="Cache" style="rounded=1;whiteSpace=wrap;html=1;" vertex="1" parent="1">
          <mxGeometry x="500" y="290" width="80" height="30" as="geometry" />
        </mxCell>
        <mxCell id="NcDPBJ0Ie0tPJa-_Eppp-28" value="MenuList" style="rounded=1;whiteSpace=wrap;html=1;" vertex="1" parent="1">
          <mxGeometry x="550" y="450" width="70" height="30" as="geometry" />
        </mxCell>
      </root>
    </mxGraphModel>
  </diagram>
</mxfile>
